<svg width="24" height="24" viewBox="0 0 24 24" fill="none" xmlns="http://www.w3.org/2000/svg">
<g clip-path="url(#clip0_5313_2055)">
<path d="M6.63478 12.8303L13.7931 0H15.4627L2.07974 23.9998H0.407227" fill="white"/>
<mask id="mask0_5313_2055" style="mask-type:luminance" maskUnits="userSpaceOnUse" x="0" y="0" width="16" height="24">
<path d="M6.63478 12.8303L13.7931 0H15.4627L2.07974 23.9998H0.407227" fill="white"/>
</mask>
<g mask="url(#mask0_5313_2055)">
<path d="M0.407412 23.9998L0.84412 24.2433L7.07167 13.0738L6.63496 12.8303L6.19825 12.5868L-0.0292969 23.7563L0.407412 23.9998ZM13.7933 0V-1H13.2061L12.92 -0.487222L13.7933 0ZM15.4629 0L16.3363 0.487026L17.1655 -1H15.4629V0ZM2.07992 23.9998V24.9998H2.66725L2.9533 24.4868L2.07992 23.9998ZM6.63496 12.8303L7.50824 13.3176L14.6666 0.487222L13.7933 0L12.92 -0.487222L5.76168 12.3431L6.63496 12.8303ZM13.7933 0V1H15.4629V0V-1H13.7933V0ZM15.4629 0L14.5895 -0.487026L1.20653 23.5128L2.07992 23.9998L2.9533 24.4868L16.3363 0.487026L15.4629 0ZM2.07992 23.9998V22.9998H0.407412V23.9998V24.9998H2.07992V23.9998Z" fill="black"/>
</g>
<path d="M10.2096 23.9998L23.5926 0H21.9201L8.53711 23.9998" fill="white"/>
<mask id="mask1_5313_2055" style="mask-type:luminance" maskUnits="userSpaceOnUse" x="8" y="0" width="16" height="24">
<path d="M10.2096 23.9998L23.5926 0H21.9201L8.53711 23.9998" fill="white"/>
</mask>
<g mask="url(#mask1_5313_2055)">
<path d="M10.2099 23.9998V23.4998H8.53745V23.9998V24.4998H10.2099V23.9998ZM23.5929 0L24.4663 0.487026L25.2955 -1H23.5929V0ZM21.9204 0V-1H21.3331L21.047 -0.487026L21.9204 0ZM10.2099 23.9998L11.0833 24.4868L24.4663 0.487026L23.5929 0L22.7195 -0.487026L9.33657 23.5128L10.2099 23.9998ZM23.5929 0V-1H21.9204V0V1H23.5929V0ZM21.9204 0L21.047 -0.487026L7.66406 23.5128L8.53745 23.9998L9.41084 24.4868L22.7938 0.487026L21.9204 0Z" fill="black"/>
</g>
<path d="M13.876 23.4996H13.3476L12.2031 21.4459L12.4668 20.9733L13.876 23.4996Z" fill="white" stroke="black"/>
<path d="M22.002 23.4996H21.4775L16.2676 14.1598L16.5322 13.6871L22.002 23.4996Z" fill="white" stroke="black"/>
<path d="M0.407227 23.9998V0H1.87613V21.3674" fill="white"/>
<mask id="mask2_5313_2055" style="mask-type:luminance" maskUnits="userSpaceOnUse" x="0" y="0" width="2" height="24">
<path d="M0.407227 23.9998V0H1.87613V21.3674" fill="white"/>
</mask>
<g mask="url(#mask2_5313_2055)">
<path d="M0.407227 23.9998L0.843849 24.2434L2.31275 21.611L1.87613 21.3674L1.43951 21.1238L-0.0293964 23.7562L0.407227 23.9998ZM0.407227 0V-1H-0.592773V0H0.407227ZM1.87613 0H2.87613V-1H1.87613V0ZM0.407227 23.9998H1.40723V0H0.407227H-0.592773V23.9998H0.407227ZM0.407227 0V1H1.87613V0V-1H0.407227V0ZM1.87613 0H0.876132V21.3674H1.87613H2.87613V0H1.87613Z" fill="black"/>
</g>
<path d="M7.54785 11.1956V0H9.01675V8.56325" fill="white"/>
<mask id="mask3_5313_2055" style="mask-type:luminance" maskUnits="userSpaceOnUse" x="7" y="0" width="3" height="12">
<path d="M7.54785 11.1956V0H9.01675V8.56325" fill="white"/>
</mask>
<g mask="url(#mask3_5313_2055)">
<path d="M7.54785 11.1956L7.98447 11.4393L9.45337 8.80689L9.01675 8.56325L8.58013 8.31961L7.11123 10.952L7.54785 11.1956ZM7.54785 0V-1H6.54785V0H7.54785ZM9.01675 0H10.0167V-1H9.01675V0ZM7.54785 11.1956H8.54785V0H7.54785H6.54785V11.1956H7.54785ZM7.54785 0V1H9.01675V0V-1H7.54785V0ZM9.01675 0H8.01675V8.56325H9.01675H10.0167V0H9.01675Z" fill="black"/>
</g>
</g>
<defs>
<clipPath id="clip0_5313_2055">
<rect width="24" height="24" fill="white"/>
</clipPath>
</defs>
</svg>
