<svg width="24" height="24" viewBox="0 0 24 24" fill="none" xmlns="http://www.w3.org/2000/svg">
<mask id="path-1-inside-1_2998_14251" fill="white">
<path d="M6.63478 12.8303L13.7931 0H15.4627L2.07974 23.9998H0.407227"/>
</mask>
<path d="M6.63478 12.8303L13.7931 0H15.4627L2.07974 23.9998H0.407227" fill="#34460C"/>
<path d="M0.407227 23.9998L0.843935 24.2433L7.07149 13.0738L6.63478 12.8303L6.19807 12.5868L-0.0294814 23.7563L0.407227 23.9998ZM13.7931 0V-1H13.2059L12.9198 -0.487222L13.7931 0ZM15.4627 0L16.3361 0.487026L17.1653 -1H15.4627V0ZM2.07974 23.9998V24.9998H2.66707L2.95312 24.4868L2.07974 23.9998ZM6.63478 12.8303L7.50806 13.3176L14.6664 0.487222L13.7931 0L12.9198 -0.487222L5.7615 12.3431L6.63478 12.8303ZM13.7931 0V1H15.4627V0V-1H13.7931V0ZM15.4627 0L14.5893 -0.487026L1.20635 23.5128L2.07974 23.9998L2.95312 24.4868L16.3361 0.487026L15.4627 0ZM2.07974 23.9998V22.9998H0.407227V23.9998V24.9998H2.07974V23.9998Z" fill="#34460C" mask="url(#path-1-inside-1_2998_14251)"/>
<mask id="path-3-inside-2_2998_14251" fill="white">
<path d="M10.2096 23.9998L23.5926 0H21.9201L8.53711 23.9998"/>
</mask>
<path d="M10.2096 23.9998L23.5926 0H21.9201L8.53711 23.9998" fill="#34460C"/>
<path d="M10.2096 23.9998V23.4998H8.53711V23.9998V24.4998H10.2096V23.9998ZM23.5926 0L24.466 0.487026L25.2952 -1H23.5926V0ZM21.9201 0V-1H21.3328L21.0467 -0.487026L21.9201 0ZM10.2096 23.9998L11.083 24.4868L24.466 0.487026L23.5926 0L22.7192 -0.487026L9.33623 23.5128L10.2096 23.9998ZM23.5926 0V-1H21.9201V0V1H23.5926V0ZM21.9201 0L21.0467 -0.487026L7.66372 23.5128L8.53711 23.9998L9.4105 24.4868L22.7935 0.487026L21.9201 0Z" fill="#34460C" mask="url(#path-3-inside-2_2998_14251)"/>
<path d="M13.8765 23.4996H13.3481L12.2036 21.4459L12.4673 20.9733L13.8765 23.4996Z" fill="#34460C" stroke="#34460C"/>
<path d="M22.002 23.4996H21.4775L16.2676 14.1598L16.5322 13.6871L22.002 23.4996Z" fill="#34460C" stroke="#34460C"/>
<mask id="path-7-inside-3_2998_14251" fill="white">
<path d="M0.407227 23.9998V0H1.87613V21.3674"/>
</mask>
<path d="M0.407227 23.9998V0H1.87613V21.3674" fill="#34460C"/>
<path d="M0.407227 23.9998L0.843849 24.2434L2.31275 21.611L1.87613 21.3674L1.43951 21.1238L-0.029396 23.7562L0.407227 23.9998ZM0.407227 0V-1H-0.592773V0H0.407227ZM1.87613 0H2.87613V-1H1.87613V0ZM0.407227 23.9998H1.40723V0H0.407227H-0.592773V23.9998H0.407227ZM0.407227 0V1H1.87613V0V-1H0.407227V0ZM1.87613 0H0.876132V21.3674H1.87613H2.87613V0H1.87613Z" fill="#34460C" mask="url(#path-7-inside-3_2998_14251)"/>
<mask id="path-9-inside-4_2998_14251" fill="white">
<path d="M7.54785 11.1956V0H9.01675V8.56325"/>
</mask>
<path d="M7.54785 11.1956V0H9.01675V8.56325" fill="#34460C"/>
<path d="M7.54785 11.1956L7.98447 11.4393L9.45337 8.80689L9.01675 8.56325L8.58013 8.31961L7.11123 10.952L7.54785 11.1956ZM7.54785 0V-1H6.54785V0H7.54785ZM9.01675 0H10.0167V-1H9.01675V0ZM7.54785 11.1956H8.54785V0H7.54785H6.54785V11.1956H7.54785ZM7.54785 0V1H9.01675V0V-1H7.54785V0ZM9.01675 0H8.01675V8.56325H9.01675H10.0167V0H9.01675Z" fill="#34460C" mask="url(#path-9-inside-4_2998_14251)"/>
</svg>






